<svg xmlns="http://www.w3.org/2000/svg" viewBox="0 0 48 48"><title>calculator</title><g id="calculator"><path d="M40,9a5,5,0,0,0-5-5H13A5,5,0,0,0,8,9V39a5,5,0,0,0,5,5H35a5,5,0,0,0,5-5ZM38,39a3,3,0,0,1-3,3H13a3,3,0,0,1-3-3V9a3,3,0,0,1,3-3H35a3,3,0,0,1,3,3Z"/><path d="M34,8H14a2,2,0,0,0-2,2v6a2,2,0,0,0,2,2H34a2,2,0,0,0,2-2V10A2,2,0,0,0,34,8Zm0,8H14V10H34Z"/><path d="M18,27H14a1,1,0,0,0-1,1v4a1,1,0,0,0,1,1h4a1,1,0,0,0,1-1V28A1,1,0,0,0,18,27Zm-1,4H15V29h2Z"/><path d="M18,34H14a1,1,0,0,0-1,1v4a1,1,0,0,0,1,1h4a1,1,0,0,0,1-1V35A1,1,0,0,0,18,34Zm-1,4H15V36h2Z"/><path d="M18,20H14a1,1,0,0,0-1,1v4a1,1,0,0,0,1,1h4a1,1,0,0,0,1-1V21A1,1,0,0,0,18,20Zm-1,4H15V22h2Z"/><path d="M26,27H22a1,1,0,0,0-1,1v4a1,1,0,0,0,1,1h4a1,1,0,0,0,1-1V28A1,1,0,0,0,26,27Zm-1,4H23V29h2Z"/><path d="M26,34H22a1,1,0,0,0-1,1v4a1,1,0,0,0,1,1h4a1,1,0,0,0,1-1V35A1,1,0,0,0,26,34Zm-1,4H23V36h2Z"/><path d="M26,20H22a1,1,0,0,0-1,1v4a1,1,0,0,0,1,1h4a1,1,0,0,0,1-1V21A1,1,0,0,0,26,20Zm-1,4H23V22h2Z"/><path d="M32,27a3,3,0,0,0-3,3v7a3,3,0,0,0,6,0V30A3,3,0,0,0,32,27Zm1,10a1,1,0,0,1-2,0V30a1,1,0,0,1,2,0Z"/><path d="M34,20H30a1,1,0,0,0-1,1v4a1,1,0,0,0,1,1h4a1,1,0,0,0,1-1V21A1,1,0,0,0,34,20Zm-1,4H31V22h2Z"/></g></svg>